<svg width="363" height="68" viewBox="0 0 363 68" fill="none" xmlns="http://www.w3.org/2000/svg">
<path d="M56.1 0H11.9C5.32781 0 0 5.32781 0 11.9V56.1C0 62.6722 5.32781 68 11.9 68H56.1C62.6722 68 68 62.6722 68 56.1V11.9C68 5.32781 62.6722 0 56.1 0Z" fill="url(#paint0_linear_10_11)"/>
<path d="M22.1 40.8H17C16.0611 40.8 15.3 41.5612 15.3 42.5V62.9C15.3 63.8389 16.0611 64.6 17 64.6H22.1C23.0389 64.6 23.8 63.8389 23.8 62.9V42.5C23.8 41.5612 23.0389 40.8 22.1 40.8Z" fill="white"/>
<path d="M39.1 28.9H34C33.0611 28.9 32.3 29.6611 32.3 30.6V62.9C32.3 63.8389 33.0611 64.6 34 64.6H39.1C40.0389 64.6 40.8 63.8389 40.8 62.9V30.6C40.8 29.6611 40.0389 28.9 39.1 28.9Z" fill="white"/>
<path d="M56.1 13.6H51C50.0611 13.6 49.3 14.3611 49.3 15.3V62.9C49.3 63.8389 50.0611 64.6 51 64.6H56.1C57.0389 64.6 57.8 63.8389 57.8 62.9V15.3C57.8 14.3611 57.0389 13.6 56.1 13.6Z" fill="white"/>
<path d="M102.429 14.1818H110.332V40.5511C110.332 42.9886 109.785 45.1061 108.689 46.9034C107.606 48.7008 106.098 50.0857 104.165 51.0582C102.232 52.0308 99.9853 52.517 97.4247 52.517C95.1473 52.517 93.0791 52.117 91.2202 51.3168C89.3736 50.5043 87.9086 49.2732 86.8253 47.6236C85.742 45.9616 85.2064 43.875 85.2188 41.3636H93.1776C93.2022 42.3608 93.4053 43.2164 93.7869 43.9304C94.1809 44.6321 94.7164 45.1738 95.3935 45.5554C96.0829 45.9247 96.8954 46.1094 97.831 46.1094C98.8158 46.1094 99.6468 45.9001 100.324 45.4815C101.013 45.0507 101.536 44.4228 101.893 43.598C102.25 42.7732 102.429 41.7576 102.429 40.5511V14.1818ZM116.943 52V14.1818H124.939V45.4077H141.152V52H116.943ZM166.963 25.0582C166.815 23.5687 166.181 22.4115 165.061 21.5866C163.94 20.7618 162.42 20.3494 160.5 20.3494C159.195 20.3494 158.093 20.5341 157.194 20.9034C156.296 21.2604 155.606 21.759 155.126 22.3991C154.658 23.0393 154.424 23.7656 154.424 24.5781C154.4 25.2552 154.541 25.8461 154.849 26.3509C155.169 26.8556 155.606 27.2926 156.16 27.6619C156.714 28.0189 157.354 28.3329 158.081 28.6037C158.807 28.8622 159.583 29.0838 160.407 29.2685L163.805 30.081C165.455 30.4503 166.969 30.9427 168.348 31.5582C169.726 32.1738 170.921 32.9309 171.93 33.8295C172.94 34.7282 173.721 35.7869 174.275 37.0057C174.842 38.2244 175.131 39.6217 175.143 41.1974C175.131 43.5118 174.54 45.5185 173.37 47.2173C172.213 48.9039 170.539 50.215 168.348 51.1506C166.169 52.0739 163.54 52.5355 160.463 52.5355C157.41 52.5355 154.751 52.0677 152.485 51.1321C150.233 50.1965 148.472 48.8116 147.204 46.9773C145.949 45.1307 145.29 42.8471 145.228 40.1264H152.966C153.052 41.3944 153.415 42.4531 154.055 43.3026C154.708 44.1397 155.575 44.7737 156.659 45.2045C157.754 45.6231 158.992 45.8324 160.37 45.8324C161.725 45.8324 162.9 45.6354 163.897 45.2415C164.907 44.8475 165.689 44.2997 166.243 43.598C166.797 42.8963 167.074 42.09 167.074 41.179C167.074 40.3295 166.821 39.6155 166.316 39.0369C165.824 38.4583 165.098 37.9659 164.137 37.5597C163.19 37.1534 162.026 36.7841 160.647 36.4517L156.529 35.4176C153.341 34.642 150.824 33.4295 148.977 31.7798C147.13 30.1302 146.213 27.9081 146.225 25.1136C146.213 22.8239 146.823 20.8234 148.054 19.1122C149.297 17.401 151.002 16.0653 153.169 15.1051C155.335 14.1449 157.797 13.6648 160.555 13.6648C163.362 13.6648 165.812 14.1449 167.904 15.1051C170.01 16.0653 171.647 17.401 172.816 19.1122C173.986 20.8234 174.589 22.8054 174.626 25.0582H166.963Z" fill="url(#paint1_linear_10_11)"/>
<path d="M197.523 53V23.9091H214.966V27.0341H201.045V36.8636H213.659V39.9886H201.045V53H197.523ZM220.545 53V31.1818H223.897V53H220.545ZM222.249 27.5455C221.596 27.5455 221.032 27.3229 220.559 26.8778C220.095 26.4328 219.863 25.8977 219.863 25.2727C219.863 24.6477 220.095 24.1127 220.559 23.6676C221.032 23.2225 221.596 23 222.249 23C222.903 23 223.461 23.2225 223.925 23.6676C224.399 24.1127 224.636 24.6477 224.636 25.2727C224.636 25.8977 224.399 26.4328 223.925 26.8778C223.461 27.3229 222.903 27.5455 222.249 27.5455ZM233.389 39.875V53H230.037V31.1818H233.276V34.5909H233.56C234.071 33.483 234.848 32.5928 235.889 31.9205C236.931 31.2386 238.276 30.8977 239.923 30.8977C241.401 30.8977 242.693 31.2008 243.801 31.8068C244.909 32.4034 245.771 33.3125 246.386 34.5341C247.002 35.7462 247.31 37.2803 247.31 39.1364V53H243.957V39.3636C243.957 37.6496 243.512 36.3144 242.622 35.358C241.732 34.392 240.51 33.9091 238.957 33.9091C237.887 33.9091 236.931 34.1411 236.088 34.6051C235.255 35.0691 234.597 35.7462 234.114 36.6364C233.631 37.5265 233.389 38.6061 233.389 39.875ZM259.856 53.5114C258.473 53.5114 257.219 53.2509 256.092 52.7301C254.965 52.1998 254.07 51.4375 253.407 50.4432C252.744 49.4394 252.413 48.2273 252.413 46.8068C252.413 45.5568 252.659 44.5436 253.151 43.767C253.644 42.9811 254.302 42.3655 255.126 41.9205C255.95 41.4754 256.859 41.1439 257.853 40.9261C258.857 40.6989 259.865 40.5189 260.879 40.3864C262.204 40.2159 263.279 40.0881 264.103 40.0028C264.936 39.9081 265.542 39.7519 265.921 39.5341C266.309 39.3163 266.504 38.9375 266.504 38.3977V38.2841C266.504 36.8826 266.12 35.7936 265.353 35.017C264.595 34.2405 263.445 33.8523 261.901 33.8523C260.301 33.8523 259.046 34.2027 258.137 34.9034C257.228 35.6042 256.589 36.3523 256.219 37.1477L253.038 36.0114C253.606 34.6856 254.363 33.6534 255.31 32.9148C256.267 32.1667 257.308 31.6458 258.435 31.3523C259.572 31.0492 260.689 30.8977 261.788 30.8977C262.488 30.8977 263.293 30.983 264.202 31.1534C265.121 31.3144 266.006 31.6506 266.859 32.1619C267.72 32.6733 268.435 33.4451 269.004 34.4773C269.572 35.5095 269.856 36.892 269.856 38.625V53H266.504V50.0455H266.333C266.106 50.5189 265.727 51.0256 265.197 51.5653C264.666 52.1051 263.961 52.5644 263.08 52.9432C262.2 53.322 261.125 53.5114 259.856 53.5114ZM260.367 50.5C261.693 50.5 262.81 50.2396 263.719 49.7188C264.638 49.1979 265.329 48.5256 265.793 47.7017C266.267 46.8778 266.504 46.0114 266.504 45.1023V42.0341C266.362 42.2045 266.049 42.3608 265.566 42.5028C265.093 42.6354 264.543 42.7538 263.918 42.858C263.303 42.9527 262.701 43.0379 262.114 43.1136C261.537 43.1799 261.068 43.2367 260.708 43.2841C259.837 43.3977 259.022 43.5824 258.265 43.8381C257.517 44.0843 256.911 44.4583 256.447 44.9602C255.992 45.4527 255.765 46.125 255.765 46.9773C255.765 48.142 256.196 49.0227 257.058 49.6193C257.929 50.2064 259.032 50.5 260.367 50.5ZM279.327 39.875V53H275.974V31.1818H279.213V34.5909H279.497C280.009 33.483 280.785 32.5928 281.827 31.9205C282.868 31.2386 284.213 30.8977 285.861 30.8977C287.338 30.8977 288.631 31.2008 289.739 31.8068C290.847 32.4034 291.708 33.3125 292.324 34.5341C292.939 35.7462 293.247 37.2803 293.247 39.1364V53H289.895V39.3636C289.895 37.6496 289.45 36.3144 288.56 35.358C287.67 34.392 286.448 33.9091 284.895 33.9091C283.825 33.9091 282.868 34.1411 282.026 34.6051C281.192 35.0691 280.534 35.7462 280.051 36.6364C279.568 37.5265 279.327 38.6061 279.327 39.875ZM308.237 53.4545C306.191 53.4545 304.43 52.9716 302.952 52.0057C301.475 51.0398 300.339 49.7093 299.543 48.0142C298.748 46.3191 298.35 44.3826 298.35 42.2045C298.35 39.9886 298.757 38.0331 299.572 36.3381C300.396 34.6335 301.541 33.303 303.009 32.3466C304.487 31.3807 306.21 30.8977 308.18 30.8977C309.714 30.8977 311.096 31.1818 312.327 31.75C313.558 32.3182 314.567 33.1136 315.353 34.1364C316.139 35.1591 316.627 36.3523 316.816 37.7159H313.464C313.208 36.7216 312.64 35.8409 311.759 35.0739C310.888 34.2973 309.714 33.9091 308.237 33.9091C306.93 33.9091 305.784 34.25 304.799 34.9318C303.824 35.6042 303.061 36.5559 302.512 37.7869C301.972 39.0085 301.702 40.4432 301.702 42.0909C301.702 43.7765 301.968 45.2443 302.498 46.4943C303.038 47.7443 303.795 48.715 304.771 49.4062C305.755 50.0975 306.911 50.4432 308.237 50.4432C309.108 50.4432 309.898 50.2917 310.609 49.9886C311.319 49.6856 311.92 49.25 312.413 48.6818C312.905 48.1136 313.255 47.4318 313.464 46.6364H316.816C316.627 47.9242 316.158 49.0843 315.41 50.1165C314.671 51.1392 313.691 51.9536 312.469 52.5597C311.257 53.1562 309.846 53.4545 308.237 53.4545ZM306.646 52.8864H309.43L309.202 54.0227C309.941 54.1364 310.618 54.4441 311.234 54.946C311.849 55.4574 312.157 56.267 312.157 57.375C312.157 58.5966 311.65 59.5909 310.637 60.358C309.633 61.1345 308.151 61.5227 306.191 61.5227L306.077 59.3068C306.958 59.3068 307.687 59.1648 308.265 58.8807C308.852 58.6061 309.146 58.142 309.146 57.4886C309.146 56.8352 308.904 56.3902 308.421 56.1534C307.938 55.9167 307.157 55.7557 306.077 55.6705L306.646 52.8864ZM328.137 53.5114C326.754 53.5114 325.5 53.2509 324.373 52.7301C323.246 52.1998 322.351 51.4375 321.688 50.4432C321.025 49.4394 320.694 48.2273 320.694 46.8068C320.694 45.5568 320.94 44.5436 321.433 43.767C321.925 42.9811 322.583 42.3655 323.407 41.9205C324.231 41.4754 325.14 41.1439 326.134 40.9261C327.138 40.6989 328.147 40.5189 329.16 40.3864C330.486 40.2159 331.56 40.0881 332.384 40.0028C333.218 39.9081 333.824 39.7519 334.202 39.5341C334.591 39.3163 334.785 38.9375 334.785 38.3977V38.2841C334.785 36.8826 334.401 35.7936 333.634 35.017C332.877 34.2405 331.726 33.8523 330.183 33.8523C328.582 33.8523 327.327 34.2027 326.418 34.9034C325.509 35.6042 324.87 36.3523 324.501 37.1477L321.319 36.0114C321.887 34.6856 322.645 33.6534 323.592 32.9148C324.548 32.1667 325.59 31.6458 326.717 31.3523C327.853 31.0492 328.97 30.8977 330.069 30.8977C330.77 30.8977 331.575 30.983 332.484 31.1534C333.402 31.3144 334.288 31.6506 335.14 32.1619C336.002 32.6733 336.717 33.4451 337.285 34.4773C337.853 35.5095 338.137 36.892 338.137 38.625V53H334.785V50.0455H334.614C334.387 50.5189 334.008 51.0256 333.478 51.5653C332.948 52.1051 332.242 52.5644 331.362 52.9432C330.481 53.322 329.406 53.5114 328.137 53.5114ZM328.648 50.5C329.974 50.5 331.092 50.2396 332.001 49.7188C332.919 49.1979 333.611 48.5256 334.075 47.7017C334.548 46.8778 334.785 46.0114 334.785 45.1023V42.0341C334.643 42.2045 334.33 42.3608 333.847 42.5028C333.374 42.6354 332.825 42.7538 332.2 42.858C331.584 42.9527 330.983 43.0379 330.396 43.1136C329.818 43.1799 329.349 43.2367 328.989 43.2841C328.118 43.3977 327.304 43.5824 326.546 43.8381C325.798 44.0843 325.192 44.4583 324.728 44.9602C324.273 45.4527 324.046 46.125 324.046 46.9773C324.046 48.142 324.477 49.0227 325.339 49.6193C326.21 50.2064 327.313 50.5 328.648 50.5ZM359.71 36.0682L356.699 36.9205C356.509 36.4186 356.23 35.9309 355.861 35.4574C355.501 34.9744 355.009 34.5767 354.384 34.2642C353.759 33.9517 352.958 33.7955 351.983 33.7955C350.648 33.7955 349.535 34.1032 348.645 34.7188C347.764 35.3248 347.324 36.0966 347.324 37.0341C347.324 37.8674 347.627 38.5256 348.233 39.0085C348.839 39.4915 349.786 39.8939 351.074 40.2159L354.312 41.0114C356.263 41.4848 357.717 42.2093 358.673 43.1847C359.63 44.1506 360.108 45.3958 360.108 46.9205C360.108 48.1705 359.748 49.2879 359.028 50.2727C358.318 51.2576 357.324 52.0341 356.045 52.6023C354.767 53.1705 353.28 53.4545 351.585 53.4545C349.36 53.4545 347.518 52.9716 346.06 52.0057C344.601 51.0398 343.678 49.6288 343.29 47.7727L346.472 46.9773C346.775 48.1515 347.348 49.0322 348.19 49.6193C349.043 50.2064 350.155 50.5 351.528 50.5C353.091 50.5 354.331 50.1686 355.25 49.5057C356.178 48.8333 356.642 48.0284 356.642 47.0909C356.642 46.3333 356.377 45.6989 355.847 45.1875C355.316 44.6667 354.502 44.2784 353.403 44.0227L349.767 43.1705C347.769 42.697 346.301 41.9631 345.364 40.9688C344.436 39.965 343.972 38.7102 343.972 37.2045C343.972 35.9735 344.317 34.8845 345.009 33.9375C345.709 32.9905 346.661 32.2472 347.864 31.7074C349.076 31.1676 350.449 30.8977 351.983 30.8977C354.142 30.8977 355.837 31.3712 357.068 32.3182C358.309 33.2652 359.189 34.5152 359.71 36.0682Z" fill="black"/>
<defs>
<linearGradient id="paint0_linear_10_11" x1="-4.65004e-07" y1="64.5" x2="68" y2="9.5" gradientUnits="userSpaceOnUse">
<stop stop-color="#1E4DD8"/>
<stop offset="1" stop-color="#7D22CE"/>
</linearGradient>
<linearGradient id="paint1_linear_10_11" x1="88" y1="52" x2="178" y2="16" gradientUnits="userSpaceOnUse">
<stop stop-color="#1E4DD8"/>
<stop offset="1" stop-color="#7D22CE"/>
</linearGradient>
</defs>
</svg>
